<svg xmlns="http://www.w3.org/2000/svg" viewBox="0 0 1024 1024" width="1024" height="1024">
  <defs>
    <linearGradient id="bg" x1="0" y1="0" x2="0" y2="1">
      <stop offset="0%" stop-color="#007AFF"/>
      <stop offset="100%" stop-color="#5856D6"/>
    </linearGradient>
  </defs>
  <!-- Background -->
  <rect width="1024" height="1024" rx="224" fill="url(#bg)"/>
  <!-- Shield — perfectly symmetric about x=512 -->
  <path d="M512 170
           L290 260
           L290 520
           C290 680 400 780 512 850
           C624 780 734 680 734 520
           L734 260
           Z"
        fill="white" opacity="0.15"/>
  <!-- Task list — centered at x=512, block spans 362–662 -->
  <!-- Line 1 - checked -->
  <rect x="362" y="350" width="32" height="32" rx="7" fill="none" stroke="white" stroke-width="3.5"/>
  <path d="M369 366 L376 374 L390 358" fill="none" stroke="white" stroke-width="4.5" stroke-linecap="round" stroke-linejoin="round"/>
  <line x1="410" y1="366" x2="662" y2="366" stroke="white" stroke-width="14" stroke-linecap="round" opacity="0.45"/>
  <!-- Line 2 - checked -->
  <rect x="362" y="430" width="32" height="32" rx="7" fill="none" stroke="white" stroke-width="3.5"/>
  <path d="M369 446 L376 454 L390 438" fill="none" stroke="white" stroke-width="4.5" stroke-linecap="round" stroke-linejoin="round"/>
  <line x1="410" y1="446" x2="662" y2="446" stroke="white" stroke-width="14" stroke-linecap="round" opacity="0.45"/>
  <!-- Line 3 - unchecked -->
  <rect x="362" y="510" width="32" height="32" rx="7" fill="none" stroke="white" stroke-width="3.5"/>
  <line x1="410" y1="526" x2="662" y2="526" stroke="white" stroke-width="14" stroke-linecap="round"/>
  <!-- Line 4 - unchecked -->
  <rect x="362" y="590" width="32" height="32" rx="7" fill="none" stroke="white" stroke-width="3.5"/>
  <line x1="410" y1="606" x2="662" y2="606" stroke="white" stroke-width="14" stroke-linecap="round"/>
</svg>
